<svg width="456" height="48" viewBox="0 0 456 48" fill="none" xmlns="http://www.w3.org/2000/svg">
<path d="M12.5244 22.4736H19.2973C21.4603 22.4736 22.7712 22.1023 23.7326 21.2939C24.7375 20.4855 25.2182 19.2182 25.2182 17.667C25.2182 16.6401 24.9342 15.7662 24.541 15.1982C24.1476 14.6738 23.7326 14.3024 23.2519 13.9529C23.4922 13.5595 23.8199 13.0352 24.1258 12.5108C24.5847 11.6806 24.8687 10.9596 24.8687 9.93277C24.8687 8.59996 24.2788 7.44205 23.2956 6.76468C22.4217 6.17489 21.3293 6 19.647 6H12.5244V22.4736ZM15.168 19.983V15.351H19.494C20.499 15.351 21.1108 15.4385 21.6133 15.7444C22.2687 16.2032 22.5309 16.8149 22.5309 17.667C22.5309 18.4317 22.3342 18.9997 21.8536 19.3931C21.3729 19.8081 20.6738 19.983 19.341 19.983H15.168ZM15.168 12.8605V8.49073H19.4066C20.3679 8.49073 21.0452 8.53445 21.4821 8.79665C21.9847 9.08065 22.1813 9.5394 22.1813 10.195C22.1813 10.8285 21.9628 11.3092 21.657 11.8554C21.4603 12.1831 21.2418 12.5545 21.0452 12.8605H15.168Z" fill="#6F6F6F"/>
<path d="M29.6971 22.4736V9.95457L33.5643 19.1964H35.9894L39.8565 9.95457V22.4736H42.4564V6H38.9608L34.8096 15.941L30.6366 6H27.0972V22.4736H29.6971Z" fill="#6F6F6F"/>
<path d="M50.3874 22.4736L53.1184 12.1831L55.8494 22.4736H59.3233L62.5569 6H59.8914L57.3569 19.0434L54.5385 8.49073H51.7202L48.9017 19.0434L46.3673 6H43.6581L46.8917 22.4736H50.3874Z" fill="#6F6F6F"/>
<path d="M24.2569 41.4538V32.8019H21.6351V39.2908C21.0451 39.3565 19.9091 39.4875 18.8385 39.4875C16.9815 39.4875 15.9108 39.0288 15.3209 37.8489C14.8402 36.8876 14.6874 35.4674 14.6874 33.5448C14.6874 31.6221 14.8622 30.1365 15.3428 29.1533C15.9546 27.8642 16.894 27.3617 18.7948 27.3617C19.3847 27.3617 20.0402 27.4492 20.7174 27.5802C21.7443 27.7769 22.8149 28.0172 23.7106 28.2357V25.6576C23.0334 25.4829 22.0939 25.2644 21.0889 25.0677C20.2805 24.9147 19.3847 24.7837 18.5326 24.7837C15.4957 24.7837 14.0975 25.9198 13.1798 27.471C12.3059 28.9348 12 30.9011 12 33.5885C12 36.1666 12.3277 38.0456 13.0706 39.3346C13.9663 40.8858 15.2772 42 18.4453 42C20.3461 42 22.6839 41.716 24.2569 41.4538Z" fill="#6F6F6F"/>
<path d="M28.8348 41.6287V35.6205H32.702L36.2415 41.6287H39.322L35.5423 35.2273C35.9574 34.7903 36.6347 34.0256 37.159 33.392C38.0111 32.3433 38.5355 31.3164 38.5355 29.8308C38.5355 28.3888 38.0111 27.056 37.0717 26.2695C36.023 25.3738 34.7994 25.1553 32.7894 25.1553H26.1913V41.6287H28.8348ZM28.8348 33.0861V27.6896H32.5054C33.9037 27.6896 34.6028 27.7988 35.0835 28.1266C35.6516 28.5198 35.8481 29.0879 35.8481 29.8526C35.8481 30.7265 35.4767 31.3602 34.9961 31.9719C34.712 32.3214 34.3407 32.7584 34.0348 33.0861H28.8348Z" fill="#6F6F6F"/>
<path d="M46.4883 24.7837C43.2547 24.7837 41.7472 25.8324 40.7204 27.5802C39.8683 29.0223 39.6061 31.2289 39.6061 33.4356C39.6061 35.9918 39.9994 38.1329 40.8515 39.5094C41.8564 41.1261 43.2767 42 46.4883 42C49.2849 42 50.7705 41.2354 51.9285 39.553C52.9117 38.1548 53.3487 35.9263 53.3487 33.4356C53.3487 31.0759 52.999 28.7381 51.9285 27.2088C50.7924 25.5702 49.3067 24.7837 46.4883 24.7837ZM46.4883 27.318C47.974 27.318 49.1319 27.6895 49.8311 28.913C50.4647 29.9835 50.6613 31.6658 50.6613 33.4356C50.6613 35.2709 50.4647 37.128 49.6126 38.2204C48.8479 39.2035 47.7992 39.4657 46.4883 39.4657C45.0026 39.4657 43.7572 39.2253 43.0363 37.98C42.4683 36.9531 42.2934 35.1834 42.2934 33.4356C42.2934 31.6658 42.4463 29.9399 43.0145 28.913C43.7354 27.6021 45.0026 27.318 46.4883 27.318Z" fill="#6F6F6F"/>
<path d="M55.0368 25.1553V35.2928C55.0368 37.6306 55.299 39.3129 56.4132 40.4927C57.5056 41.6944 58.9476 42.0002 61.1762 42.0002C63.2735 42.0002 64.7374 41.6507 65.8517 40.5363C67.0314 39.3566 67.2936 37.7616 67.2936 35.2928V25.1553H64.6501V35.3583C64.6501 37.0844 64.5408 38.1112 63.8197 38.7885C63.208 39.3347 62.2686 39.4659 61.1762 39.4659C60.0619 39.4659 59.1006 39.3347 58.5107 38.7667C57.7897 38.0675 57.6805 37.0406 57.6805 35.3583V25.1553H55.0368Z" fill="#6F6F6F"/>
<path d="M71.8626 41.6287V35.7298C73.5886 35.7298 75.0524 35.7298 75.9701 35.6642C77.4994 35.5768 78.7448 35.2491 79.6624 34.3096C80.6237 33.3046 80.9951 31.8844 80.9951 30.3114C80.9951 28.8039 80.58 27.4056 79.706 26.488C78.7884 25.5485 77.6087 25.1553 75.7952 25.1553H69.219V41.6287H71.8626ZM71.8626 33.1953V27.6896H75.5112C76.56 27.6896 77.1935 27.7988 77.6524 28.2577C78.1112 28.7165 78.3078 29.4156 78.3078 30.3114C78.3078 31.1853 78.1986 31.8844 77.7616 32.3651C77.3247 32.8895 76.691 33.0643 75.7079 33.1298C74.7028 33.1953 73.3264 33.1953 71.8626 33.1953Z" fill="#6F6F6F"/>
<g clip-path="url(#clip0_15_64)">
<path d="M147.089 6.00002C143.569 5.99433 140.127 7.03292 137.197 8.98437C134.268 10.9358 131.983 13.7124 130.632 16.9628C129.281 20.2132 128.925 23.7914 129.608 27.2444C130.291 30.6975 131.983 33.8702 134.47 36.3613C136.957 38.8523 140.127 40.5496 143.579 41.2384C147.031 41.9272 150.61 41.5766 153.862 40.2309C157.115 38.8851 159.895 36.6048 161.851 33.6785C163.808 30.7521 164.852 27.3112 164.852 23.7912C164.848 19.0788 162.976 14.5602 159.647 11.2253C156.317 7.89047 151.802 6.01145 147.089 6.00002ZM163.649 23.7912C163.649 27.0665 162.678 30.2682 160.859 32.9914C159.039 35.7147 156.453 37.8373 153.427 39.0906C150.401 40.344 147.071 40.672 143.859 40.033C140.646 39.394 137.696 37.8168 135.38 35.5009C133.064 33.1849 131.487 30.2342 130.848 27.0219C130.209 23.8096 130.537 20.4799 131.79 17.454C133.043 14.428 135.166 11.8417 137.889 10.0221C140.612 8.20245 143.814 7.23122 147.089 7.23122C151.483 7.23502 155.696 8.98003 158.805 12.084C161.914 15.1879 163.667 19.3978 163.678 23.7912H163.649Z" fill="#6F6F6F"/>
<path d="M147.089 13.229V13.7978C149.718 13.8054 152.237 14.8532 154.096 16.7122C155.955 18.5712 157.003 21.0904 157.01 23.7194H157.579C157.583 22.3407 157.314 20.9749 156.788 19.7004C156.262 18.426 155.49 17.268 154.515 16.2931C153.54 15.3183 152.382 14.5457 151.108 14.0198C149.833 13.494 148.467 13.2252 147.089 13.229ZM147.089 33.713C144.46 33.7054 141.94 32.6577 140.081 30.7987C138.222 28.9396 137.175 26.4205 137.167 23.7914H136.598C136.606 26.5904 137.721 29.2726 139.7 31.2518C141.68 33.231 144.362 34.3462 147.161 34.3538" fill="#6F6F6F"/>
<path d="M155.664 16.3033C155.907 16.6254 156.17 16.9331 156.449 17.2249L160.049 14.9569C159.791 14.6891 159.551 14.4053 159.329 14.1073L157.082 15.5833L156.945 15.7201L157.082 15.5833L158.076 13.5961L157.356 12.8761L155.369 13.8625L155.225 14.0065L155.369 13.8625L156.859 11.5945C156.571 11.3857 156.362 11.1697 156.01 10.8745L153.742 14.4745C154.022 14.6905 154.375 15.0433 154.663 15.2521L156.801 14.1433L156.945 14.0713L156.873 14.2153L155.664 16.3033Z" fill="#6F6F6F"/>
<path d="M147.514 11.6664L148.507 9.47042L148.579 9.25442V9.47042L148.651 12.444C149.008 12.4565 149.362 12.5048 149.71 12.588L149.573 8.26802C149.076 8.19602 148.579 8.19602 148.082 8.12402L147.089 10.5432L146.131 8.12402C145.634 8.13596 145.138 8.18409 144.648 8.26802L144.504 12.588C144.857 12.516 145.224 12.516 145.57 12.444L145.634 9.47042V9.25442L145.706 9.47042L146.7 11.6664H147.514Z" fill="#6F6F6F"/>
<path d="M139.579 15.1441C140.141 14.5753 140.501 13.8625 139.932 13.1569C139.769 12.9924 139.562 12.8783 139.336 12.8285C139.11 12.7787 138.874 12.7952 138.658 12.8761H138.586V12.8041C138.63 12.6092 138.619 12.4057 138.552 12.2171C138.486 12.0286 138.368 11.8626 138.211 11.7385C138.111 11.6367 137.985 11.5632 137.848 11.5253C137.71 11.4873 137.565 11.4864 137.426 11.5225C136.858 11.5945 136.505 11.9545 135.374 13.1569C135.014 13.5097 134.525 14.1505 134.237 14.5033L137.29 17.3833C138.37 16.4185 138.794 15.9937 139.579 15.1441ZM135.605 14.4241C136.095 13.8237 136.617 13.2493 137.167 12.7033C137.274 12.6154 137.393 12.5427 137.52 12.4873C137.567 12.4684 137.618 12.4614 137.668 12.4668C137.719 12.4722 137.767 12.4899 137.809 12.5184C137.851 12.5468 137.885 12.5851 137.909 12.6299C137.932 12.6747 137.945 12.7246 137.945 12.7753C137.964 12.879 137.955 12.986 137.918 13.0849C137.881 13.1838 137.818 13.2709 137.736 13.3369C137.376 13.6969 136.174 14.9713 136.174 14.9713L135.605 14.4241ZM136.814 15.5833C136.814 15.5833 137.945 14.3737 138.37 13.9489C138.514 13.8121 138.658 13.6681 138.722 13.6681C138.788 13.6328 138.861 13.6143 138.935 13.6143C139.009 13.6143 139.082 13.6328 139.147 13.6681C139.181 13.6796 139.213 13.6984 139.239 13.7232C139.265 13.748 139.286 13.7781 139.3 13.8116C139.313 13.845 139.32 13.881 139.318 13.9171C139.317 13.9533 139.307 13.9886 139.291 14.0209C139.219 14.1649 139.082 14.3737 139.01 14.5177L137.448 16.1449L136.814 15.5833Z" fill="#6F6F6F"/>
<path d="M147.089 13.229V23.7914H136.526C136.532 20.9918 137.647 18.3086 139.626 16.329C141.606 14.3494 144.289 13.2347 147.089 13.229Z" fill="#0066B1"/>
<path d="M157.651 23.7913C157.653 25.1789 157.381 26.5532 156.851 27.8356C156.321 29.1179 155.543 30.283 154.562 31.2642C153.58 32.2454 152.415 33.0234 151.133 33.5535C149.851 34.0836 148.476 34.3556 147.089 34.3537V23.7913H157.651Z" fill="#0066B1"/>
</g>
<g clip-path="url(#clip1_15_64)">
<path d="M215.033 27.8408H213.533V19.9408H215.833L217.833 26.2408L219.833 19.9408H222.133V27.8408H220.533V22.0008L218.833 27.8008H216.933L215.033 21.9008V27.8008V27.8408ZM225.433 27.8408H223.833V19.9408H225.433V27.8408ZM228.833 27.8408H227.233V19.9408H229.133L232.233 25.6408V19.9408H233.833V27.8408H231.933L228.833 22.1408V27.8408ZM237.333 27.8408H235.733V19.9408H237.333V27.8408ZM248.933 30.7408H241.433C241.837 29.8096 242.139 28.8373 242.333 27.8408H251.733L254.233 25.3408H242.673C242.673 24.8408 242.773 24.3408 242.773 23.8408C242.79 23.3387 242.756 22.8363 242.673 22.3408H257.073L259.573 19.8408H242.233C242.039 18.8444 241.737 17.872 241.333 16.9408H262.533L265.033 14.4408H240.033C238.465 11.9602 236.295 9.91666 233.725 8.50054C231.155 7.08443 228.268 6.3418 225.333 6.3418C222.399 6.3418 219.512 7.08443 216.941 8.50054C214.371 9.91666 212.201 11.9602 210.633 14.4408H185.673L188.173 16.9408H209.373C208.98 17.8858 208.646 18.8544 208.373 19.8408H191.033L193.533 22.3408H207.933C207.933 22.8408 207.833 23.3408 207.833 23.8408C207.817 24.3429 207.85 24.8454 207.933 25.3408H196.433L198.933 27.8408H208.333C208.561 28.8408 208.896 29.8131 209.333 30.7408H201.933L204.433 33.2408H210.733C212.301 35.7215 214.471 37.765 217.041 39.1811C219.612 40.5972 222.499 41.3399 225.433 41.3399C228.368 41.3399 231.255 40.5972 233.825 39.1811C236.395 37.765 238.565 35.7215 240.133 33.2408H246.433L248.933 30.7408ZM225.433 38.8408C222.486 38.8408 219.605 37.967 217.155 36.3297C214.705 34.6925 212.795 32.3654 211.667 29.6428C210.54 26.9202 210.244 23.9243 210.819 21.034C211.394 18.1437 212.813 15.4887 214.897 13.4049C216.981 11.3211 219.636 9.90205 222.526 9.32713C225.417 8.75221 228.412 9.04728 231.135 10.175C233.858 11.3028 236.185 13.2125 237.822 15.6628C239.459 18.1131 240.333 20.9939 240.333 23.9408C240.323 27.8893 238.749 31.673 235.957 34.4651C233.165 37.2571 229.382 38.8303 225.433 38.8408Z" fill="#6F6F6F"/>
</g>
<path d="M347.588 16.8335C347.588 19.1797 346.132 21.0812 342.107 21.0812H334.946V6.67969H342.208C345.545 6.67969 347.183 8.45958 347.183 10.5227C347.183 11.7767 346.658 13.0308 345.424 13.6376C346.063 13.8918 346.612 14.3325 346.998 14.9024C347.384 15.4723 347.589 16.1452 347.588 16.8335V16.8335ZM338.749 9.7743V12.505H341.844C342.202 12.5214 342.553 12.3946 342.818 12.1524C343.084 11.9103 343.242 11.5726 343.259 11.2137C343.26 11.1789 343.26 11.1441 343.259 11.1093C343.259 10.3001 342.632 9.7743 341.844 9.7743H338.749ZM343.664 16.6311C343.664 15.8424 343.118 15.3164 342.147 15.3164H338.749V17.9863H342.127C343.138 17.9863 343.664 17.5412 343.664 16.6311Z" fill="black"/>
<path d="M362.737 21.0812L362.413 11.4936C362.19 12.3431 361.948 13.2129 361.665 14.0827L359.399 21.0812H355.718L353.453 14.0827C353.169 13.2332 352.947 12.3837 352.724 11.5339L352.401 21.0812H348.74L349.326 6.67969H354.585L357.559 16.6516L360.532 6.67969H365.791L366.377 21.0812H362.737Z" fill="black"/>
<path d="M388.241 6.67969C387.068 11.5542 385.814 16.1661 384.317 21.0812H379.685L377.703 12.0396L375.7 21.0812H371.069C369.572 16.1661 368.318 11.5542 367.124 6.67969H371.23C371.918 9.75404 372.707 13.0511 373.516 16.2468L375.559 6.67969H379.827L381.869 16.2468C382.678 13.0511 383.467 9.75404 384.155 6.67969H388.241Z" fill="black"/>
<path d="M348.354 41.3193L348.031 31.7333C347.808 32.5828 347.565 33.4524 347.282 34.322L345.017 41.3193H341.336L339.072 34.322C338.789 33.4726 338.566 32.6233 338.344 31.774L338.02 41.3193H334.359L334.946 26.9202H340.204L343.177 36.8904L346.15 26.9202H351.408L351.994 41.3193H348.354Z" fill="black"/>
<path d="M353.047 34.1196C353.047 29.5287 356.889 26.5964 361.035 26.5964C365.181 26.5964 369.023 29.5287 369.023 34.1196C369.023 38.7104 365.181 41.6427 361.035 41.6427C356.889 41.6427 353.047 38.7104 353.047 34.1196ZM365.1 34.1196C365.096 33.0407 364.663 32.0076 363.898 31.2474C363.132 30.4872 362.096 30.062 361.017 30.0653C359.939 30.0687 358.905 30.5003 358.144 31.2652C357.384 32.0302 356.958 33.0659 356.96 34.1448C356.963 35.2237 357.394 36.2573 358.158 37.0187C358.923 37.78 359.958 38.2066 361.037 38.2047C362.116 38.2029 363.15 37.7727 363.912 37.0088C364.674 36.2449 365.101 35.2097 365.1 34.1309L365.1 34.1196Z" fill="black"/>
<path d="M381.259 30.1762H377.072V41.3193H373.23V30.1762H369.064V26.9202H381.259V30.1762Z" fill="black"/>
<path d="M381.299 34.1196C381.299 29.5287 385.142 26.5964 389.287 26.5964C393.433 26.5964 397.276 29.5287 397.276 34.1196C397.276 38.7104 393.433 41.6427 389.287 41.6427C385.142 41.6427 381.299 38.7104 381.299 34.1196ZM393.353 34.1196C393.348 33.0407 392.916 32.0077 392.151 31.2474C391.385 30.4872 390.349 30.0621 389.27 30.0654C388.191 30.0688 387.158 30.5004 386.397 31.2654C385.637 32.0304 385.211 33.0661 385.213 34.145C385.216 35.2238 385.647 36.2575 386.411 37.0188C387.176 37.78 388.211 38.2066 389.29 38.2047C390.369 38.2028 391.403 37.7726 392.165 37.0087C392.926 36.2447 393.354 35.2096 393.353 34.1307L393.353 34.1196Z" fill="black"/>
<path d="M411.19 41.2383V41.3193H407.065C406.79 40.5211 406.472 39.738 406.114 38.9734C405.767 38.2575 405.368 37.5681 404.921 36.9106H402.514V41.3193H398.672V26.9202H404.982C409.046 26.9202 410.563 29.3269 410.563 31.6526C410.584 32.4454 410.395 33.2295 410.015 33.9256C409.635 34.6217 409.077 35.2049 408.399 35.6162C408.995 36.4768 409.523 37.3829 409.977 38.3263C410.433 39.2747 410.838 40.2468 411.19 41.2383H411.19ZM402.514 33.7557H404.961C405.993 33.7557 406.782 33.0885 406.782 31.9154C406.782 30.7628 405.993 30.0751 404.961 30.0751H402.514V33.7557Z" fill="black"/>
<path d="M425.165 41.2383V41.3193H421.039C420.764 40.5211 420.447 39.738 420.089 38.9734C419.742 38.2575 419.343 37.5681 418.895 36.9106H416.489V41.3193H412.646V26.9202H418.956C423.021 26.9202 424.538 29.3269 424.538 31.6526C424.558 32.4454 424.369 33.2295 423.989 33.9256C423.609 34.6217 423.052 35.2049 422.374 35.6162C422.97 36.4768 423.497 37.3829 423.951 38.3263C424.407 39.2747 424.812 40.2468 425.165 41.2383H425.165ZM416.489 33.7557H418.936C419.967 33.7557 420.756 33.0885 420.756 31.9154C420.756 30.7628 419.967 30.0751 418.936 30.0751H416.489V33.7557Z" fill="black"/>
<path d="M436.126 38.5287H430.746C430.504 39.4588 430.261 40.3892 430.039 41.3193H426.176C427.45 36.0611 428.926 31.4099 430.848 26.9202H436.065C437.987 31.4099 439.463 36.0611 440.717 41.3193H436.834C436.611 40.3892 436.368 39.4588 436.126 38.5287ZM435.196 35.1915C434.629 33.1894 434.023 31.3291 433.436 29.8324C432.83 31.3291 432.243 33.1894 431.657 35.1915H435.196Z" fill="black"/>
<path d="M455.561 34.1198C455.561 38.1846 452.447 41.3194 447.391 41.3194H441.91V26.9202H447.391C452.447 26.9202 455.561 30.0549 455.561 34.1198ZM451.638 34.1198C451.638 31.511 449.615 30.2368 447.391 30.2368H445.752V38.0027H447.391C449.615 38.0027 451.638 36.7285 451.638 34.1198Z" fill="black"/>
<path d="M304.351 6C299.577 6.00003 294.999 7.89648 291.623 11.2721C288.248 14.6478 286.351 19.2262 286.351 24.0001C286.351 28.7739 288.248 33.3523 291.623 36.7279C294.999 40.1036 299.577 42 304.351 42C309.125 42 313.703 40.1036 317.079 36.7279C320.455 33.3523 322.351 28.7739 322.351 24.0001C322.351 19.2262 320.455 14.6478 317.079 11.2721C313.703 7.89648 309.125 6.00003 304.351 6L304.351 6ZM321.181 24.0001C321.181 27.3287 320.194 30.5825 318.344 33.3501C316.495 36.1177 313.867 38.2748 310.791 39.5486C307.716 40.8224 304.332 41.1557 301.068 40.5063C297.803 39.8569 294.804 38.2541 292.451 35.9004C290.097 33.5468 288.494 30.548 287.845 27.2834C287.195 24.0188 287.529 20.6349 288.803 17.5597C290.076 14.4845 292.233 11.8561 295.001 10.0069C297.769 8.15762 301.022 7.17058 304.351 7.17058C306.561 7.17058 308.75 7.60589 310.791 8.45166C312.833 9.29742 314.689 10.5371 316.251 12.0998C317.814 13.6626 319.054 15.5179 319.899 17.5597C320.745 19.6016 321.181 21.79 321.181 24.0001Z" fill="black"/>
<path d="M304.351 13.3259V13.911C307.026 13.9141 309.59 14.978 311.482 16.8694C313.373 18.7608 314.437 21.3253 314.44 24.0001H315.025C315.025 21.1691 313.901 18.4541 311.899 16.4523C309.897 14.4506 307.182 13.3259 304.351 13.3259ZM304.351 34.089C301.676 34.0859 299.112 33.022 297.22 31.1306C295.329 29.2393 294.265 26.6749 294.262 24.0001H293.677C293.677 25.4019 293.953 26.7899 294.489 28.085C295.026 29.3801 295.812 30.5568 296.803 31.548C297.794 32.5392 298.971 33.3255 300.266 33.8619C301.561 34.3984 302.949 34.6745 304.351 34.6745H304.351" fill="black"/>
<path d="M313.075 16.3635C313.319 16.6263 313.671 17.0497 313.869 17.3066L317.514 14.9926C317.332 14.7542 317.042 14.3922 316.825 14.1378L314.517 15.6641L314.36 15.8001L314.478 15.6282L315.496 13.5937L314.776 12.8735L312.741 13.8928L312.57 14.01L312.706 13.8521L314.234 11.5447C313.965 11.316 313.707 11.1065 313.377 10.8523L311.063 14.4946C311.356 14.7204 311.742 15.0513 311.988 15.2767L314.167 14.1466L314.306 14.044L314.204 14.1836L313.075 16.3635Z" fill="black"/>
<path d="M304.804 11.7482L305.8 9.51754L305.864 9.31994L305.846 9.52653L305.951 12.5073C306.3 12.5405 306.661 12.5888 307.017 12.6479L306.855 8.23228C306.357 8.17755 305.862 8.13808 305.366 8.11719L304.385 10.5521L304.351 10.7328L304.316 10.5521L303.336 8.11719C302.84 8.13808 302.345 8.17755 301.847 8.23228L301.685 12.6479C302.041 12.5888 302.402 12.5405 302.751 12.5073L302.856 9.52653L302.838 9.31994L302.902 9.51754L303.897 11.7482H304.804Z" fill="black"/>
<path d="M296.749 15.2668C297.324 14.6604 297.651 13.9594 297.074 13.2903C296.916 13.1189 296.707 13.0014 296.479 12.9542C296.25 12.907 296.012 12.9325 295.799 13.0271L295.755 13.0445L295.77 13.0065C295.824 12.8072 295.818 12.5965 295.753 12.4004C295.689 12.2044 295.568 12.0317 295.406 11.9038C295.293 11.815 295.164 11.7495 295.025 11.711C294.887 11.6725 294.743 11.6617 294.6 11.6794C294.06 11.7344 293.643 12.1037 292.511 13.367C292.169 13.7478 291.672 14.3492 291.373 14.7389L294.483 17.6896C295.516 16.5472 295.936 16.1226 296.749 15.2668ZM292.691 14.5453C293.186 13.9344 293.719 13.3545 294.285 12.8086C294.375 12.7148 294.487 12.6436 294.61 12.6008C294.659 12.5896 294.71 12.5883 294.76 12.5968C294.81 12.6054 294.858 12.6237 294.9 12.6507C294.943 12.6777 294.98 12.7128 295.01 12.7541C295.039 12.7955 295.06 12.8421 295.071 12.8915L295.072 12.8993C295.082 13.0067 295.066 13.1147 295.026 13.2147C294.986 13.3147 294.922 13.4038 294.841 13.4748C294.51 13.8481 293.295 15.1193 293.295 15.1193L292.691 14.5453ZM293.908 15.7004C293.908 15.7004 295.091 14.4501 295.477 14.0496C295.579 13.9282 295.699 13.8245 295.835 13.7426C295.899 13.7056 295.972 13.6868 296.045 13.6883C296.119 13.6898 296.191 13.7116 296.254 13.7511C296.317 13.7921 296.366 13.8514 296.394 13.921C296.422 13.9906 296.429 14.0671 296.412 14.1405C296.352 14.3232 296.247 14.4879 296.106 14.6195C295.943 14.7945 294.54 16.2964 294.538 16.2983L293.908 15.7004Z" fill="black"/>
<path d="M304.351 13.3259V24.0001H293.677C293.676 22.599 293.951 21.2116 294.487 19.9169C295.022 18.6223 295.808 17.4457 296.798 16.4546C297.788 15.4634 298.964 14.6769 300.258 14.1401C301.552 13.6033 302.939 13.3266 304.34 13.3259C304.344 13.3259 304.347 13.3259 304.351 13.3259Z" fill="#0066B1"/>
<path d="M315.025 24C315.026 25.4011 314.751 26.7885 314.215 28.0832C313.68 29.3779 312.895 30.5544 311.904 31.5456C310.914 32.5368 309.738 33.3233 308.444 33.8601C307.15 34.397 305.763 34.6736 304.362 34.6744H304.351V24H315.025Z" fill="#0066B1"/>
<defs>
<clipPath id="clip0_15_64">
<rect width="36" height="36" fill="white" transform="translate(128.995 6)"/>
</clipPath>
<clipPath id="clip1_15_64">
<rect width="80" height="36" fill="white" transform="translate(185.673 6)"/>
</clipPath>
</defs>
</svg>
